<?xml version="1.0" encoding="UTF-8"?>
<svg version="1.1" xmlns="http://www.w3.org/2000/svg" width="356" height="362">
<path d="M0 0 C0.71998169 -0.00376648 1.43996338 -0.00753296 2.1817627 -0.01141357 C15.20875897 -0.04597484 27.80062107 1.30286174 40.4375 4.5625 C41.28151367 4.77865967 42.12552734 4.99481934 42.99511719 5.2175293 C57.35068794 8.99495669 70.5759356 14.24911529 83.625 21.3125 C84.67300781 21.87839844 85.72101563 22.44429687 86.80078125 23.02734375 C99.03011675 29.91140678 110.04661532 38.10173045 120.11865234 47.86181641 C121.65135062 49.33787689 123.2088692 50.78406003 124.76953125 52.23046875 C155.27989477 81.02239522 174.12361796 124.29667488 175.734375 166.15478516 C176.57714773 199.41797125 170.76705469 230.91869095 154.625 260.3125 C154.29886719 260.92174316 153.97273438 261.53098633 153.63671875 262.15869141 C145.50229716 277.33781376 134.52459416 292.69432248 121.625 304.3125 C120.965 304.3125 120.305 304.3125 119.625 304.3125 C119.625 304.9725 119.625 305.6325 119.625 306.3125 C118.965 306.3125 118.305 306.3125 117.625 306.3125 C117.625 306.9725 117.625 307.6325 117.625 308.3125 C116.31835938 309.57421875 116.31835938 309.57421875 114.46875 311 C113.44189087 311.79337769 113.44189087 311.79337769 112.39428711 312.6027832 C111.64542236 313.16698975 110.89655762 313.73119629 110.125 314.3125 C109.35615479 314.89410889 108.58730957 315.47571777 107.79516602 316.07495117 C90.56238646 328.93999993 72.18954256 338.93730966 51.625 345.3125 C50.89474609 345.54066406 50.16449219 345.76882813 49.41210938 346.00390625 C30.80285954 351.68240445 11.0788215 354.41727393 -8.375 353.3125 C-9.1366748 353.26996094 -9.89834961 353.22742188 -10.68310547 353.18359375 C-49.70926777 350.71328281 -89.02778076 336.14733135 -117.58984375 308.95703125 C-119.28727331 307.24090636 -119.28727331 307.24090636 -121.375 306.3125 C-121.375 305.6525 -121.375 304.9925 -121.375 304.3125 C-121.92027344 304.09980469 -122.46554688 303.88710938 -123.02734375 303.66796875 C-126.2126243 301.82887998 -128.4874953 299.31928902 -130.9375 296.625 C-131.72423096 295.76213379 -131.72423096 295.76213379 -132.52685547 294.88183594 C-165.3554201 258.21719091 -179.44135058 211.25940104 -177.25488281 162.64160156 C-174.69578446 121.81012786 -156.29526572 83.78897725 -128.375 54.3125 C-127.50617188 53.37921875 -126.63734375 52.4459375 -125.7421875 51.484375 C-102.00950595 26.50586174 -70.70482698 10.88215862 -37.375 3.3125 C-36.2001001 3.04348877 -36.2001001 3.04348877 -35.00146484 2.76904297 C-23.423622 0.26229437 -11.79881998 0.03412645 0 0 Z M-136.375 110.3125 C-136.375 110.9725 -136.375 111.6325 -136.375 112.3125 C-132.085 112.3125 -127.795 112.3125 -123.375 112.3125 C-123.375 113.3025 -123.375 114.2925 -123.375 115.3125 C-122.735625 115.93125 -122.09625 116.55 -121.4375 117.1875 C-119.09509185 119.60089022 -118.73984584 121.0288874 -118.375 124.3125 C-119.096875 124.415625 -119.81875 124.51875 -120.5625 124.625 C-123.42178889 125.16598954 -123.42178889 125.16598954 -125.75 126.8125 C-128.94965934 128.64087676 -131.7366478 128.9557988 -135.375 129.3125 C-136.035 127.9925 -136.695 126.6725 -137.375 125.3125 C-138.035 125.3125 -138.695 125.3125 -139.375 125.3125 C-139.705 128.2825 -140.035 131.2525 -140.375 134.3125 C-128.495 134.3125 -116.615 134.3125 -104.375 134.3125 C-103.375 137.3125 -103.375 137.3125 -104.61914062 139.97290039 C-105.56563477 141.55059204 -105.56563477 141.55059204 -106.53125 143.16015625 C-106.87119995 143.73148788 -107.2111499 144.30281952 -107.56140137 144.89146423 C-108.28645685 146.10557283 -109.01646702 147.31673395 -109.75097656 148.52514648 C-110.85253713 150.3380319 -111.93929952 152.15907637 -113.0234375 153.98242188 C-116.71395775 160.151541 -120.57799755 166.14378371 -124.75830078 171.99584961 C-127.37286301 175.74238857 -129.71533621 179.64493166 -132.0625 183.5625 C-132.98190134 185.0892478 -133.90245169 186.61530433 -134.82421875 188.140625 C-135.21955811 188.7996582 -135.61489746 189.45869141 -136.0222168 190.13769531 C-137.74256868 192.90342255 -139.56827259 195.60240889 -141.375 198.3125 C-141.375 205.9025 -141.375 213.4925 -141.375 221.3125 C-107.715 221.3125 -74.055 221.3125 -39.375 221.3125 C-46.30936285 213.22241001 -52.80899618 207.97117969 -62.0625 202.9375 C-62.69212646 202.59146729 -63.32175293 202.24543457 -63.97045898 201.88891602 C-70.30371527 198.55838891 -75.89033865 198.18656135 -82.9609375 198.21484375 C-83.66272125 198.2162587 -84.364505 198.21767365 -85.08755493 198.21913147 C-87.30841504 198.2246871 -89.52917084 198.23723108 -91.75 198.25 C-93.26432145 198.25502074 -94.7786445 198.25958264 -96.29296875 198.26367188 C-99.98701252 198.27464193 -103.68099606 198.29187551 -107.375 198.3125 C-107.705 196.3325 -108.035 194.3525 -108.375 192.3125 C-107.715 192.3125 -107.055 192.3125 -106.375 192.3125 C-105.09986742 190.68585341 -105.09986742 190.68585341 -103.86328125 188.52734375 C-103.35998291 187.69750977 -102.85668457 186.86767578 -102.33813477 186.01269531 C-101.79342529 185.10100586 -101.24871582 184.18931641 -100.6875 183.25 C-95.7345825 175.09854311 -90.66307808 167.04209015 -85.4375 159.0625 C-84.82366455 158.12398193 -84.2098291 157.18546387 -83.57739258 156.21850586 C-82.98595459 155.31624268 -82.3945166 154.41397949 -81.78515625 153.484375 C-81.21812988 152.61748047 -80.65110352 151.75058594 -80.06689453 150.85742188 C-78.93289612 149.15167881 -77.77721462 147.46016632 -76.60107422 145.78320312 C-76.05080566 144.99365234 -75.50053711 144.20410156 -74.93359375 143.390625 C-74.44044678 142.6987207 -73.9472998 142.00681641 -73.43920898 141.29394531 C-72.05955936 139.10004065 -72.05955936 139.10004065 -72.375 135.3125 C-73.365 135.3125 -74.355 135.3125 -75.375 135.3125 C-75.705 133.6625 -76.035 132.0125 -76.375 130.3125 C-77.035 130.3125 -77.695 130.3125 -78.375 130.3125 C-79.65442737 126.90069369 -80.50789367 123.73599131 -80.875 120.125 C-81.09765676 116.24990289 -81.09765676 116.24990289 -83.375 113.3125 C-82.715 113.3125 -82.055 113.3125 -81.375 113.3125 C-81.375 112.6525 -81.375 111.9925 -81.375 111.3125 C-88.34104831 110.48249149 -95.18347454 110.17604262 -102.1953125 110.21484375 C-103.17998505 110.2162587 -104.16465759 110.21767365 -105.1791687 110.21913147 C-108.286145 110.22467385 -111.39304593 110.23721517 -114.5 110.25 C-116.62239478 110.25502246 -118.74479071 110.25958405 -120.8671875 110.26367188 C-126.03648683 110.27462433 -131.20573069 110.29184834 -136.375 110.3125 Z " fill="#F1AB05" transform="translate(179.375,5.6875)"/>
<path d="M0 0 C0.33 -2.31 0.66 -4.62 1 -7 C5.99127308 -6.83381525 10.95876355 -6.57809045 15.93603516 -6.16552734 C17.58404422 -6.03335912 19.23526946 -5.94149603 20.88671875 -5.86328125 C23.69217126 -5.40794603 24.89477249 -4.94465931 27 -3 C29.53746822 1.75237692 31.34266847 6.6461577 33.14404297 11.71337891 C34.45652895 15.21958075 36.05659721 18.5703049 37.6875 21.9375 C39.56517162 25.84072669 41.30378361 29.72300188 42.87890625 33.7578125 C44.30783185 37.38450457 45.87236563 40.89737168 47.578125 44.40234375 C48.23554687 45.76842773 48.23554687 45.76842773 48.90625 47.16210938 C49.80354472 49.01538814 50.7151031 50.86182709 51.640625 52.70117188 C56.06712185 62.02184605 56.14144912 69.87356376 52.91821289 79.62084961 C52.61520264 80.46784424 52.31219238 81.31483887 52 82.1875 C51.68603271 83.09314697 51.37206543 83.99879395 51.04858398 84.93188477 C48.04627292 93.33613456 44.28974684 101.18860287 40 109 C39.67386719 109.60924316 39.34773438 110.21848633 39.01171875 110.84619141 C30.87729716 126.02531376 19.89959416 141.38182248 7 153 C6.34 153 5.68 153 5 153 C5 153.66 5 154.32 5 155 C4.34 155 3.68 155 3 155 C3 155.66 3 156.32 3 157 C1.69335938 158.26171875 1.69335938 158.26171875 -0.15625 159.6875 C-0.84082275 160.21641846 -1.52539551 160.74533691 -2.23071289 161.2902832 C-2.97957764 161.85448975 -3.72844238 162.41869629 -4.5 163 C-5.26884521 163.58160889 -6.03769043 164.16321777 -6.82983398 164.76245117 C-24.06261354 177.62749993 -42.43545744 187.62480966 -63 194 C-63.73025391 194.22816406 -64.46050781 194.45632813 -65.21289062 194.69140625 C-83.82214046 200.36990445 -103.5461785 203.10477393 -123 202 C-123.7616748 201.95746094 -124.52334961 201.91492188 -125.30810547 201.87109375 C-149.69091581 200.32769005 -189.85106261 194.14893739 -208 176 C-208.04063832 174.33382885 -208.042721 172.66611905 -208 171 C-209.32 171.33 -210.64 171.66 -212 172 C-212.20753906 171.46375 -212.41507813 170.9275 -212.62890625 170.375 C-214.83380806 164.76587741 -217.16484258 159.21636499 -219.5625 153.6875 C-219.85519775 153.00623047 -220.14789551 152.32496094 -220.44946289 151.62304688 C-222.07301946 147.90317747 -223.8563215 144.45675792 -226 141 C-227.04294676 138.67707312 -228.03270537 136.3540356 -229 134 C-229.39445312 133.06414062 -229.78890625 132.12828125 -230.1953125 131.1640625 C-237 114.9876497 -237 114.9876497 -237 112 C-237.66 112 -238.32 112 -239 112 C-239.1959375 111.47535156 -239.391875 110.95070313 -239.59375 110.41015625 C-242.12862874 103.84350918 -245.06059362 97.5016218 -248.09375 91.15454102 C-251.26453325 84.50993031 -253.96628909 78.11798819 -256 71 C-205.015 70.505 -205.015 70.505 -153 70 C-159.00878194 62.6824331 -159.00878194 62.6824331 -166 59 C-167.52925784 58.07630594 -169.04913764 57.13701284 -170.5625 56.1875 C-176.46450193 52.5922347 -182.68680373 49.79047233 -189 47 C-189 46.67 -189 46.34 -189 46 C-188.44733963 45.99191315 -187.89467926 45.98382629 -187.32527161 45.97549438 C-181.56614414 45.88934687 -175.80735684 45.7898389 -170.04858398 45.68261719 C-167.90020466 45.64436615 -165.75176213 45.60950653 -163.60327148 45.578125 C-160.51262854 45.53239063 -157.42241919 45.47440944 -154.33203125 45.4140625 C-153.37351761 45.40251129 -152.41500397 45.39096008 -151.42744446 45.37905884 C-145.46689271 45.24754643 -141.09083638 45.09083638 -136.6875 40.6875 C-133.69052748 35.73332093 -134.2897503 29.53432194 -135 24 C-136.45137778 20.18393842 -138.5923316 18.27177893 -142 16 C-147.5673833 15.18345045 -152.30061683 15.75518781 -157 19 C-160.66397142 22.90823618 -160.43410746 27.24165791 -160.296875 32.33984375 C-159.77164926 37.04614278 -157.56609825 40.15085263 -155 44 C-159.39494061 44.2325602 -163.78830286 44.37450074 -168.1875 44.5 C-170.05631836 44.60054687 -170.05631836 44.60054687 -171.96289062 44.703125 C-180.8710598 44.89418493 -180.8710598 44.89418493 -183.95483398 42.45166016 C-188.46989872 35.81750996 -188.26341179 27.65965894 -187 20 C-183.99148239 8.65295753 -177.95995018 0.10282662 -168 -6 C-157.60424943 -11.56731105 -144.82628681 -11.76279356 -133.625 -8.5 C-117.67187652 -2.25461512 -111.33699568 9.35728966 -104.77978516 24.20800781 C-100 35.19223544 -100 35.19223544 -100 38 C-99.34 38 -98.68 38 -98 38 C-97.94996128 34.05309997 -97.91398367 30.10632691 -97.89013672 26.15917969 C-97.87532409 24.16855363 -97.84989008 22.17801563 -97.82421875 20.1875 C-97.78719579 12.85695312 -98.15734574 6.10447469 -100 -1 C-100.18675293 -1.74878418 -100.37350586 -2.49756836 -100.56591797 -3.26904297 C-100.78078857 -4.1258667 -100.78078857 -4.1258667 -101 -5 C-97.83486722 -5.51003854 -94.66769716 -6.00615957 -91.5 -6.5 C-90.613125 -6.64308594 -89.72625 -6.78617188 -88.8125 -6.93359375 C-83.46923901 -7.75865611 -78.40603486 -8.15157107 -73 -8 C-72.01 -4.04 -72.01 -4.04 -71 0 C-70.34515625 -0.45890625 -69.6903125 -0.9178125 -69.015625 -1.390625 C-46.88121195 -16.27195354 -21.89883287 -14.04681892 0 0 Z " fill="#C99820" transform="translate(294,157)"/>
<path d="M0 0 C0.33 -2.31 0.66 -4.62 1 -7 C19.04100228 -6.40546697 19.04100228 -6.40546697 26 -3 C25.92812973 -2.22267014 25.85625946 -1.44534027 25.7822113 -0.64445496 C25.0800478 7.55748552 24.89393891 15.65862545 24.97265625 23.88671875 C24.98528133 26.47851439 24.99764378 29.07031133 25.00976562 31.66210938 C25.03474102 35.70243561 25.06261235 39.74269453 25.09594727 43.78295898 C25.12775054 47.71334615 25.1438489 51.64373635 25.16015625 55.57421875 C25.18034569 57.40058113 25.18034569 57.40058113 25.20094299 59.26383972 C25.20601112 60.94247856 25.20601112 60.94247856 25.21118164 62.6550293 C25.22236778 64.13509712 25.22236778 64.13509712 25.23377991 65.64506531 C25 68 25 68 23 70 C20.56982422 70.22705078 20.56982422 70.22705078 17.5546875 70.1953125 C15.94013672 70.18564453 15.94013672 70.18564453 14.29296875 70.17578125 C13.16503906 70.15902344 12.03710938 70.14226562 10.875 70.125 C9.17150391 70.11146484 9.17150391 70.11146484 7.43359375 70.09765625 C4.62218701 70.07403098 1.81119702 70.04109013 -1 70 C-1.99 67.36 -2.98 64.72 -4 62 C-4.60328125 62.48210937 -5.2065625 62.96421875 -5.828125 63.4609375 C-6.62734375 64.09257812 -7.4265625 64.72421875 -8.25 65.375 C-9.03890625 66.00148438 -9.8278125 66.62796875 -10.640625 67.2734375 C-17.11263473 72.00957707 -23.14426509 71.54565744 -31 71 C-40.03081956 69.40789996 -46.51033736 64.37659437 -51.8125 57.0625 C-58.5557556 46.83241292 -59.88114715 37.11267064 -59 25 C-57.83242281 19.76925418 -56.25401968 16.16652994 -52.3125 12.5 C-40.97367749 7.36543886 -30.20958753 8.22754279 -18.5546875 11.9296875 C-16 13 -16 13 -15 15 C-15.58007812 15.08636719 -16.16015625 15.17273438 -16.7578125 15.26171875 C-22.57840104 16.30865629 -25.85190003 17.74819753 -30 22 C-31.80949727 27.4284918 -31.67895797 32.9631261 -29.875 38.375 C-27.53487471 41.6511754 -25.62425252 43.2220648 -22 45 C-16.17463892 45.64726234 -12.18290503 44.99013752 -7 42 C-3.47151176 38.3810377 -2.70676496 35.40900022 -2.5 30.5 C-2.71504902 25.53371162 -3.53099952 22.72917551 -7 19 C-13.73048525 13.08848973 -20.92876404 8.63657796 -30 8 C-30.99773437 7.92265625 -30.99773437 7.92265625 -32.015625 7.84375 C-42.62011243 7.38600234 -52.58414365 10.56082165 -61 17 C-65.40434815 21.22159512 -68.79786185 25.24543286 -69.25537109 31.47998047 C-69.26988827 32.85898622 -69.27538989 34.23810672 -69.2734375 35.6171875 C-69.29372846 37.12630947 -69.31457928 38.635424 -69.3359375 40.14453125 C-69.35850776 42.50999247 -69.37500039 44.87515878 -69.38085938 47.24072266 C-69.39042221 49.53341219 -69.42424089 51.82479351 -69.4609375 54.1171875 C-69.45589203 54.81738007 -69.45084656 55.51757263 -69.44564819 56.23898315 C-69.54554905 61.26550562 -70.77551502 64.1702581 -74 68 C-77.17965452 70.03166304 -79.67569804 70.24450608 -83.41113281 70.22705078 C-84.49195129 70.22689972 -85.57276978 70.22674866 -86.68634033 70.22659302 C-87.84687927 70.21627045 -89.00741821 70.20594788 -90.203125 70.1953125 C-91.99251495 70.19106766 -91.99251495 70.19106766 -93.8180542 70.18673706 C-97.62880476 70.17554053 -101.43932045 70.15043653 -105.25 70.125 C-107.83332994 70.11496954 -110.41666356 70.1058438 -113 70.09765625 C-119.33341349 70.07560289 -125.66668997 70.04213035 -132 70 C-129 68 -129 68 -126.73046875 66.73828125 C-119.03163754 62.42173226 -114.51838813 58.12349348 -110.5625 50.25 C-108.11675554 45.56497003 -105.90820671 44.66693813 -101 43 C-96.85181211 36.77771816 -97.81674643 28.97741927 -97.8125 21.75 C-97.79413086 20.12771484 -97.79413086 20.12771484 -97.77539062 18.47265625 C-97.76055165 10.2716493 -99.00342092 2.91448884 -101 -5 C-97.83486722 -5.51003854 -94.66769716 -6.00615957 -91.5 -6.5 C-90.613125 -6.64308594 -89.72625 -6.78617188 -88.8125 -6.93359375 C-83.46923901 -7.75865611 -78.40603486 -8.15157107 -73 -8 C-72.34 -5.36 -71.68 -2.72 -71 0 C-70.34515625 -0.45890625 -69.6903125 -0.9178125 -69.015625 -1.390625 C-46.88121195 -16.27195354 -21.89883287 -14.04681892 0 0 Z " fill="#54012C" transform="translate(294,157)"/>
<path d="M0 0 C8.46876542 5.70275736 14.39778107 12.89257479 16.63671875 23.00390625 C18.35792618 37.25073213 17.83817361 49.43522766 9.03125 61.26953125 C8.495 62.09453125 7.95875 62.91953125 7.40625 63.76953125 C0.65426937 70.87687928 -8.37735635 74.29413529 -17.96875 75.26953125 C-18.67128906 75.40488281 -19.37382812 75.54023438 -20.09765625 75.6796875 C-22.71343401 76.00267919 -24.42725354 76.0217802 -26.96875 75.26953125 C-29.5821537 72.91576537 -31.68497113 70.43844379 -33.828125 67.65234375 C-36.16587415 65.05010474 -37.70716145 64.37360936 -40.96875 63.26953125 C-42.48642712 62.38243828 -43.98608009 61.46397167 -45.46875 60.51953125 C-51.38808292 56.8892455 -57.62561733 54.07323566 -63.96875 51.26953125 C-63.96875 50.93953125 -63.96875 50.60953125 -63.96875 50.26953125 C-63.41608963 50.2614444 -62.86342926 50.25335754 -62.29402161 50.24502563 C-56.53489414 50.15887812 -50.77610684 50.05937015 -45.01733398 49.95214844 C-42.86895466 49.9138974 -40.72051213 49.87903778 -38.57202148 49.84765625 C-35.48137854 49.80192188 -32.39116919 49.74394069 -29.30078125 49.68359375 C-28.34226761 49.67204254 -27.38375397 49.66049133 -26.39619446 49.64859009 C-20.43564271 49.51707768 -16.05958638 49.36036763 -11.65625 44.95703125 C-8.65927748 40.00285218 -9.2585003 33.80385319 -9.96875 28.26953125 C-11.42012778 24.45346967 -13.5610816 22.54131018 -16.96875 20.26953125 C-22.5361333 19.4529817 -27.26936683 20.02471906 -31.96875 23.26953125 C-35.63272142 27.17776743 -35.40285746 31.51118916 -35.265625 36.609375 C-34.74039926 41.31567403 -32.53484825 44.42038388 -29.96875 48.26953125 C-34.36369061 48.50209145 -38.75705286 48.64403199 -43.15625 48.76953125 C-45.02506836 48.87007812 -45.02506836 48.87007812 -46.93164062 48.97265625 C-55.8398098 49.16371618 -55.8398098 49.16371618 -58.92358398 46.72119141 C-63.43864872 40.08704121 -63.23216179 31.92919019 -61.96875 24.26953125 C-58.96023239 12.92248878 -52.92870018 4.37235787 -42.96875 -1.73046875 C-29.64069532 -8.8681377 -12.82281384 -7.4743507 0 0 Z " fill="#2565D3" transform="translate(168.96875,152.73046875)"/>
<path d="M0 0 C-1.32 0.99 -2.64 1.98 -4 3 C-4.99 2.01 -4.99 2.01 -6 1 C-12.79506535 -1.26502178 -20.40467302 -0.58078012 -27 2 C-28.58233487 2.23596222 -30.16580891 2.46433996 -31.75 2.6875 C-38.36790028 3.92898205 -43.83922145 7.76571498 -48.51171875 12.546875 C-50.30778013 14.30050974 -52.24249228 15.49150972 -54.375 16.8125 C-59.55131404 20.20445863 -63.71878109 24.10193923 -66 30 C-66.18878868 32.57265182 -66.27707844 35.04539767 -66.2734375 37.6171875 C-66.29372846 39.12630947 -66.31457928 40.635424 -66.3359375 42.14453125 C-66.35850776 44.50999247 -66.37500039 46.87515878 -66.38085938 49.24072266 C-66.39042221 51.53341219 -66.42424089 53.82479351 -66.4609375 56.1171875 C-66.45589203 56.81738007 -66.45084656 57.51757263 -66.44564819 58.23898315 C-66.54554905 63.26550562 -67.77551502 66.1702581 -71 70 C-74.17965452 72.03166304 -76.67569804 72.24450608 -80.41113281 72.22705078 C-81.49195129 72.22689972 -82.57276978 72.22674866 -83.68634033 72.22659302 C-84.84687927 72.21627045 -86.00741821 72.20594788 -87.203125 72.1953125 C-88.99251495 72.19106766 -88.99251495 72.19106766 -90.8180542 72.18673706 C-94.62880476 72.17554053 -98.43932045 72.15043653 -102.25 72.125 C-104.83332994 72.11496954 -107.41666356 72.1058438 -110 72.09765625 C-116.33341349 72.07560289 -122.66668997 72.04213035 -129 72 C-126 70 -126 70 -123.73046875 68.73828125 C-116.03163754 64.42173226 -111.51838813 60.12349348 -107.5625 52.25 C-105.11675554 47.56497003 -102.90820671 46.66693813 -98 45 C-93.85181211 38.77771816 -94.81674643 30.97741927 -94.8125 23.75 C-94.79413086 22.12771484 -94.79413086 22.12771484 -94.77539062 20.47265625 C-94.76055165 12.2716493 -96.00342092 4.91448884 -98 -3 C-94.83486722 -3.51003854 -91.66769716 -4.00615957 -88.5 -4.5 C-87.613125 -4.64308594 -86.72625 -4.78617188 -85.8125 -4.93359375 C-80.46923901 -5.75865611 -75.40603486 -6.15157107 -70 -6 C-69.34 -3.36 -68.68 -0.72 -68 2 C-67.34515625 1.54109375 -66.6903125 1.0821875 -66.015625 0.609375 C-45.75666424 -13.01105624 -20.68616664 -13.04244098 0 0 Z " fill="#930E0E" transform="translate(291,155)"/>
<path d="M0 0 C4.1646 4.1646 5.80952407 11.00696819 7.9453125 16.4375 C9.28350141 19.68880342 10.80046903 22.84332421 12.36328125 25.9921875 C13.15274045 28.48164781 13.0465857 29.61339336 12 32 C10.36328125 33.3515625 10.36328125 33.3515625 8.3125 34.625 C3.27358197 38.20100634 0.74907815 42.55322833 -2 48 C-2.34160156 48.61359375 -2.68320313 49.2271875 -3.03515625 49.859375 C-5.1968069 54.40386845 -5.33447505 59.09805576 -5.4375 64.0625 C-5.45989746 64.73555176 -5.48229492 65.40860352 -5.50537109 66.10205078 C-5.47823294 71.93961064 -4.21390043 73.37567424 -1 79 C7.58 79 16.16 79 25 79 C23.68 77.35 22.36 75.7 21 74 C19.28529138 68.85587415 18.77517048 62.87148828 20.94140625 57.79296875 C23.36988393 54.17689697 25.62196279 51.89550761 30 51 C33.82857946 50.48857566 37.34665815 50.12078643 40.84375 51.98046875 C44.81970721 55.14759153 46.75086206 57.99378395 47.37109375 62.98828125 C47.57256007 73.0734482 47.57256007 73.0734482 44.8125 77.1875 C39.53438255 82.46561745 34.4198382 82.32226758 27.32421875 82.4140625 C26.3990596 82.43342865 25.47390045 82.4527948 24.52070618 82.4727478 C21.57639683 82.53235254 18.63204798 82.57885248 15.6875 82.625 C13.68683225 82.66319736 11.68618064 82.70225012 9.68554688 82.7421875 C4.7904962 82.83803841 -0.10463145 82.92214 -5 83 C-5.33 83.66 -5.66 84.32 -6 85 C-6.99 84.67 -7.98 84.34 -9 84 C-11.43780377 83.84730819 -13.85283901 83.74317303 -16.29296875 83.68359375 C-16.99899734 83.66281265 -17.70502594 83.64203156 -18.43244934 83.62062073 C-20.68403551 83.55532509 -22.93573662 83.49633353 -25.1875 83.4375 C-26.7155066 83.39429575 -28.24350164 83.35068084 -29.77148438 83.30664062 C-33.51420562 83.19966426 -37.2570423 83.09834078 -41 83 C-41.495 80.03 -41.495 80.03 -42 77 C-41.34 77 -40.68 77 -40 77 C-39.77957031 76.35160156 -39.55914062 75.70320313 -39.33203125 75.03515625 C-37.51647894 70.89825261 -35.12493526 67.23330167 -32.6875 63.4375 C-32.1620459 62.61266113 -31.6365918 61.78782227 -31.09521484 60.93798828 C-25.1245381 51.58621972 -19.08992092 42.27454041 -13 33 C-12.45988281 32.1745166 -11.91976562 31.3490332 -11.36328125 30.49853516 C-10.83347656 29.69464355 -10.30367187 28.89075195 -9.7578125 28.0625 C-9.04455811 26.97775391 -9.04455811 26.97775391 -8.31689453 25.87109375 C-6.7596026 23.65843425 -4.97969759 21.83829062 -3 20 C-1.0243438 17.03651571 -0.73623141 16.31979627 -0.5859375 12.98828125 C-0.54726562 12.23095703 -0.50859375 11.47363281 -0.46875 10.69335938 C-0.42234375 9.51483398 -0.42234375 9.51483398 -0.375 8.3125 C-0.33632812 7.51521484 -0.29765625 6.71792969 -0.2578125 5.89648438 C-0.16367506 3.93136525 -0.08075368 1.9657146 0 0 Z " fill="#CA9D2B" transform="translate(113,121)"/>
<path d="M0 0 C11.88 0 23.76 0 36 0 C33.74953869 10.1270759 33.74953869 10.1270759 31.390625 13.9375 C30.88273437 14.77023438 30.37484375 15.60296875 29.8515625 16.4609375 C29.05878906 17.71777344 29.05878906 17.71777344 28.25 19 C27.48042969 20.25683594 27.48042969 20.25683594 26.6953125 21.5390625 C23.26080803 27.11366021 19.66566697 32.57520599 16 38 C15.01 37.67 14.02 37.34 13 37 C11.85205058 34.68317499 10.89995882 32.47383116 10 30.0625 C9.60482178 29.0413208 9.60482178 29.0413208 9.20166016 27.99951172 C7.48081219 23.48561974 6.02014811 18.93903423 4.72265625 14.28515625 C3.69087415 11.02249395 2.2599219 7.98583134 0.76953125 4.91015625 C0 3 0 3 0 0 Z " fill="#CB9D2A" transform="translate(39,141)"/>
<path d="M0 0 C3.97595721 3.16712278 5.90711206 6.0133152 6.52734375 11.0078125 C6.72881007 21.09297945 6.72881007 21.09297945 3.96875 25.20703125 C0.09262625 29.083155 -2.32188478 29.932364 -7.80786133 30.24658203 C-9.34720429 30.24626796 -10.88657183 30.23512215 -12.42578125 30.21484375 C-13.23996017 30.21201385 -14.0541391 30.20918396 -14.89299011 30.20626831 C-17.480896 30.19511709 -20.06844958 30.17002208 -22.65625 30.14453125 C-24.41601061 30.1344949 -26.17577667 30.12537019 -27.93554688 30.1171875 C-32.23841598 30.09519435 -36.54102336 30.06069961 -40.84375 30.01953125 C-40.84375 29.35953125 -40.84375 28.69953125 -40.84375 28.01953125 C-28.46875 27.52453125 -28.46875 27.52453125 -15.84375 27.01953125 C-17.16375 25.36953125 -18.48375 23.71953125 -19.84375 22.01953125 C-21.55845862 16.8754054 -22.06857952 10.89101953 -19.90234375 5.8125 C-15.59431018 -0.60228354 -7.27632641 -3.86940239 0 0 Z " fill="#C59723" transform="translate(153.84375,172.98046875)"/>
<path d="M0 0 C22.77 0 45.54 0 69 0 C70.80024421 5.40073264 71.41815227 8.94334936 71.4375 14.4375 C71.44136719 15.19087646 71.44523437 15.94425293 71.44921875 16.72045898 C71.32684391 22.56959397 70.28638269 25.82077688 66 30 C65.505 28.02 65.505 28.02 65 26 C64.01 26 63.02 26 62 26 C61.67 24.35 61.34 22.7 61 21 C60.34 21 59.68 21 59 21 C56.22572016 16.1751655 55.53439788 12.4330451 55 7 C54.505 5.515 54.505 5.515 54 4 C54.66 4 55.32 4 56 4 C56 3.34 56 2.68 56 2 C37.85 1.67 19.7 1.34 1 1 C1 1.66 1 2.32 1 3 C2.546875 2.7215625 2.546875 2.7215625 4.125 2.4375 C7.76148442 2.02692918 10.45437009 2.221691 14 3 C14 3.99 14 4.98 14 6 C14.639375 6.185625 15.27875 6.37125 15.9375 6.5625 C18 8 18 8 18.75 11.625 C18.87375 13.295625 18.87375 13.295625 19 15 C13.33492989 18.08900201 8.49142565 20.57664615 2 21 C1.34 19.35 0.68 17.7 0 16 C-0.66 16 -1.32 16 -2 16 C-1.85833643 14.08302063 -1.71150416 12.16642277 -1.5625 10.25 C-1.48128906 9.18265625 -1.40007813 8.1153125 -1.31640625 7.015625 C-1 4 -1 4 0 0 Z " fill="#FDFBF4" transform="translate(42,115)"/>
<path d="M0 0 C0 0.66 0 1.32 0 2 C2.76276177 1.47731534 5.3260876 0.89130413 8 0 C8.66 0.66 9.32 1.32 10 2 C9.8125 4 9.8125 4 9 6 C5.23562003 8.50958665 2.5579567 8.0880331 -1.75 7.75 C-2.4409375 7.71003906 -3.131875 7.67007813 -3.84375 7.62890625 C-8.475476 7.30677493 -12.57779218 6.41232815 -17 5 C-15.125 1.125 -15.125 1.125 -14 0 C-9.04345232 -0.99130954 -4.96246529 -0.91147322 0 0 Z " fill="#FEFEFE" transform="translate(107,211)"/>
<path d="M0 0 C1.64574566 -0.02688151 3.29161413 -0.04634123 4.9375 -0.0625 C5.85402344 -0.07410156 6.77054687 -0.08570313 7.71484375 -0.09765625 C10 0 10 0 11 1 C11.14115161 3.67058851 11.04247107 6.32432238 11 9 C11.66 9 12.32 9 13 9 C13 9.66 13 10.32 13 11 C8.71 11 4.42 11 0 11 C0 10.34 0 9.68 0 9 C0.66 9 1.32 9 2 9 C2 6.36 2 3.72 2 1 C1.34 0.67 0.68 0.34 0 0 Z " fill="#DFC787" transform="translate(299,241)"/>
<path d="M0 0 C2 2 2 2 2.22705078 4.24658203 C2.21657715 5.15778809 2.20610352 6.06899414 2.1953125 7.0078125 C2.18886719 7.99394531 2.18242187 8.98007813 2.17578125 9.99609375 C2.15902344 11.02863281 2.14226562 12.06117188 2.125 13.125 C2.11597656 14.16527344 2.10695312 15.20554688 2.09765625 16.27734375 C2.07403747 18.85179092 2.04110149 21.42578212 2 24 C3.32 24.33 4.64 24.66 6 25 C5.67 25.99 5.34 26.98 5 28 C4.37480469 28.12246094 3.74960938 28.24492187 3.10546875 28.37109375 C0.77549371 28.81424853 0.77549371 28.81424853 -0.38671875 31.22265625 C-0.81597656 32.15980469 -1.24523437 33.09695312 -1.6875 34.0625 C-5.5937045 41.66723736 -11.75226361 48.12288266 -20 51 C-22.16796875 50.55859375 -22.16796875 50.55859375 -24 50 C-23.33613281 49.69707031 -22.67226562 49.39414063 -21.98828125 49.08203125 C-16.81658396 46.62830626 -12.76617006 44.4307883 -9 40 C-8.319375 39.236875 -7.63875 38.47375 -6.9375 37.6875 C-2.37595041 31.36018928 0.14116787 25.41021581 0.09765625 17.578125 C0.09443359 16.55332031 0.09121094 15.52851563 0.08789062 14.47265625 C0.07951172 13.40917969 0.07113281 12.34570312 0.0625 11.25 C0.05798828 10.17105469 0.05347656 9.09210938 0.04882812 7.98046875 C0.03705727 5.32025617 0.02061399 2.66015635 0 0 Z " fill="#AC8D3C" transform="translate(185,175)"/>
<path d="M0 0 C4.62 0 9.24 0 14 0 C14 1.65 14 3.3 14 5 C12.35 4.01 10.7 3.02 9 2 C9 6.62 9 11.24 9 16 C9.66 16.33 10.32 16.66 11 17 C8.36 17 5.72 17 3 17 C3.66 16.67 4.32 16.34 5 16 C5 11.38 5 6.76 5 2 C1.9254644 2.7763932 1.9254644 2.7763932 0 5 C0 3.35 0 1.7 0 0 Z " fill="#EADBB4" transform="translate(233,234)"/>
<path d="M0 0 C-0.33 0.66 -0.66 1.32 -1 2 C-3.97 2 -6.94 2 -10 2 C-10 1.67 -10 1.34 -10 1 C-8.02 0.67 -6.04 0.34 -4 0 C-16.62277626 -4.49523352 -28.08311856 -6.06734943 -40.5625 -0.375 C-41.366875 0.07875 -42.17125 0.5325 -43 1 C-43.66 0.34 -44.32 -0.32 -45 -1 C-29.97090747 -9.34949585 -14.54950927 -9.01175278 0 0 Z " fill="#BE8028" transform="translate(282,171)"/>
<path d="M0 0 C0.78375 0.04125 1.5675 0.0825 2.375 0.125 C3.035 2.435 3.695 4.745 4.375 7.125 C2.625 9.1875 2.625 9.1875 0.375 11.125 C-1.75 11.0625 -1.75 11.0625 -3.625 10.125 C-5.625 7.125 -5.625 7.125 -5.375 4.5625 C-4.336523 1.18744974 -3.59386412 0.17113639 0 0 Z " fill="#D2AE50" transform="translate(263.625,240.875)"/>
<path d="M0 0 C2.64 0 5.28 0 8 0 C8 0.66 8 1.32 8 2 C7.34 2 6.68 2 6 2 C6 6.62 6 11.24 6 16 C6.66 16.33 7.32 16.66 8 17 C5.36 17 2.72 17 0 17 C0.66 16.67 1.32 16.34 2 16 C2 11.38 2 6.76 2 2 C1.34 2 0.68 2 0 2 C0 1.34 0 0.68 0 0 Z " fill="#EADCB4" transform="translate(289,234)"/>
<path d="M0 0 C0.763125 0.20625 1.52625 0.4125 2.3125 0.625 C2.3125 2.275 2.3125 3.925 2.3125 5.625 C2.9725 5.955 3.6325 6.285 4.3125 6.625 C2.5625 8.6875 2.5625 8.6875 0.3125 10.625 C-2.70561422 10.44746387 -3.52485215 9.78764785 -5.6875 7.625 C-6 4.625 -6 4.625 -5.6875 1.625 C-2.6875 -0.375 -2.6875 -0.375 0 0 Z " fill="#D2AD4F" transform="translate(318.6875,241.375)"/>
<path d="M0 0 C0.99 0 1.98 0 3 0 C3.33 1.98 3.66 3.96 4 6 C5.65 6.33 7.3 6.66 9 7 C9 9.64 9 12.28 9 15 C9.66 15.33 10.32 15.66 11 16 C9.02 16 7.04 16 5 16 C5.66 15.67 6.32 15.34 7 15 C7 12.36 7 9.72 7 7 C6.01 7.66 5.02 8.32 4 9 C3.74984127 12.58357241 3.74984127 12.58357241 4 16 C2.35 16 0.7 16 -1 16 C-0.67 10.72 -0.34 5.44 0 0 Z " fill="#F2E7CB" transform="translate(270,235)"/>
<path d="M0 0 C-0.474375 0.45375 -0.94875 0.9075 -1.4375 1.375 C-3.09027808 2.93258204 -3.09027808 2.93258204 -4 5 C-3.34 5.33 -2.68 5.66 -2 6 C-9.425 7.485 -9.425 7.485 -17 9 C-11.23756906 3.23756906 -11.23756906 3.23756906 -7.9375 1.125 C-7.28652344 0.69445312 -6.63554687 0.26390625 -5.96484375 -0.1796875 C-3.55539942 -1.18561853 -2.41286875 -0.87056734 0 0 Z " fill="#820359" transform="translate(260,158)"/>
<path d="M0 0 C5.27749285 0.53851968 9.25645564 1.77343836 14 4 C14 4.33 14 4.66 14 5 C13.38511719 5.13277344 12.77023437 5.26554688 12.13671875 5.40234375 C10.92435547 5.66724609 10.92435547 5.66724609 9.6875 5.9375 C8.88699219 6.11152344 8.08648437 6.28554687 7.26171875 6.46484375 C4.854599 6.99886159 4.854599 6.99886159 2 8 C-0.1519437 4.77208445 -0.20086443 3.71599191 0 0 Z " fill="#770650" transform="translate(265,167)"/>
<path d="M0 0 C0.66 0 1.32 0 2 0 C1.67 11.55 1.34 23.1 1 35 C0.67 35 0.34 35 0 35 C0 27.41 0 19.82 0 12 C-0.66 11.67 -1.32 11.34 -2 11 C-1.835 10.071875 -1.67 9.14375 -1.5 8.1875 C-0.92251612 5.04378647 -0.92251612 5.04378647 -1 2 C-0.67 1.34 -0.34 0.68 0 0 Z " fill="#7C1742" transform="translate(317,161)"/>
<path d="M0 0 C0 0.33 0 0.66 0 1 C-1.64548828 1.05607422 -1.64548828 1.05607422 -3.32421875 1.11328125 C-4.77867857 1.17896653 -6.23310416 1.24541299 -7.6875 1.3125 C-8.40873047 1.33505859 -9.12996094 1.35761719 -9.87304688 1.38085938 C-14.42437478 1.60946489 -17.16710086 2.34270876 -21 5 C-22.66519519 5.34060811 -24.33157466 5.67558396 -26 6 C-26.33 6.66 -26.66 7.32 -27 8 C-30.0625 8.625 -30.0625 8.625 -33 9 C-24.67957384 -1.32880488 -12.07288744 -0.50952397 0 0 Z " fill="#7A93AA" transform="translate(154,147)"/>
<path d="M0 0 C0.94042104 2.50967783 1.16806629 3.60467885 0.1015625 6.11328125 C-4.38745334 12.79930219 -10.2801786 19.08599627 -18 22 C-20.25 21.625 -20.25 21.625 -22 21 C-21.33613281 20.69707031 -20.67226562 20.39414063 -19.98828125 20.08203125 C-14.81658396 17.62830626 -10.76617006 15.4307883 -7 11 C-6.29875 10.195625 -5.5975 9.39125 -4.875 8.5625 C-2.87752491 5.83261737 -1.42446688 3.06260379 0 0 Z " fill="#A77F33" transform="translate(183,204)"/>
<path d="M0 0 C1.1446875 0.3403125 1.1446875 0.3403125 2.3125 0.6875 C2.6425 2.0075 2.9725 3.3275 3.3125 4.6875 C1.3325 4.6875 -0.6475 4.6875 -2.6875 4.6875 C-2.3575 6.3375 -2.0275 7.9875 -1.6875 9.6875 C-2.6775 9.3575 -3.6675 9.0275 -4.6875 8.6875 C-6.01591008 3.25309513 -6.01591008 3.25309513 -4.5625 0.75 C-2.6875 -0.3125 -2.6875 -0.3125 0 0 Z " fill="#DFC888" transform="translate(252.6875,241.3125)"/>
<path d="M0 0 C0.99 0 1.98 0 3 0 C3 0.99 3 1.98 3 3 C12.9 2.505 12.9 2.505 23 2 C23.33 1.34 23.66 0.68 24 0 C27.875 1.75 27.875 1.75 29 4 C20.09 4 11.18 4 2 4 C1.34 2.68 0.68 1.36 0 0 Z " fill="#1757B5" transform="translate(110,197)"/>
<path d="M0 0 C0.66 0 1.32 0 2 0 C2 2.64 2 5.28 2 8 C3.32 8.66 4.64 9.32 6 10 C1.71 10 -2.58 10 -7 10 C-6.67 9.34 -6.34 8.68 -6 8 C-4.68 8 -3.36 8 -2 8 C-2.04125 7.05125 -2.0825 6.1025 -2.125 5.125 C-2 2 -2 2 0 0 Z " fill="#C99F34" transform="translate(275,242)"/>
<path d="M0 0 C6.31631828 0.40316925 10.64993984 2.71232131 16 6 C15.67 6.66 15.34 7.32 15 8 C12.03 8 9.06 8 6 8 C6 7.67 6 7.34 6 7 C7.98 6.67 9.96 6.34 12 6 C7.71 4.68 3.42 3.36 -1 2 C-0.67 1.34 -0.34 0.68 0 0 Z " fill="#B4702F" transform="translate(266,165)"/>
<path d="M0 0 C3.43752007 1.5277867 6.18953688 3.50181056 9 6 C9 6.66 9 7.32 9 8 C8.01 8 7.02 8 6 8 C5.67 8.99 5.34 9.98 5 11 C3.68 10.34 2.36 9.68 1 9 C1.33 8.01 1.66 7.02 2 6 C2.66 6 3.32 6 4 6 C4 5.34 4 4.68 4 4 C3.34 4 2.68 4 2 4 C2 3.34 2 2.68 2 2 C1.34 2 0.68 2 0 2 C0 1.34 0 0.68 0 0 Z " fill="#5687D0" transform="translate(169,154)"/>
<path d="M0 0 C3.77545388 1.09068668 6.47043472 1.9083091 9 5 C7.02 5.99 7.02 5.99 5 7 C4.34 6.34 3.68 5.68 3 5 C-0.46712111 3.84429296 -3.5414956 3.67164707 -7.1875 3.4375 C-8.45980469 3.35371094 -9.73210937 3.26992187 -11.04296875 3.18359375 C-12.01878906 3.12300781 -12.99460937 3.06242188 -14 3 C-14 2.67 -14 2.34 -14 2 C-9.38 1.67 -4.76 1.34 0 1 C0 0.67 0 0.34 0 0 Z " fill="#9F1D3F" transform="translate(282,151)"/>
<path d="M0 0 C2.31 0.33 4.62 0.66 7 1 C3.53462915 3.31024723 0.17058333 4.1499932 -3.8125 5.125 C-4.86147461 5.39763672 -4.86147461 5.39763672 -5.93164062 5.67578125 C-10.04458953 6.69920913 -13.72734085 7.20122414 -18 7 C-13.56626782 4.46018305 -8.75551243 3.79534403 -3.80078125 2.78125 C-2.87652344 2.5234375 -1.95226562 2.265625 -1 2 C-0.67 1.34 -0.34 0.68 0 0 Z " fill="#EBDCB3" transform="translate(224,349)"/>
<path d="M0 0 C2.475 0.495 2.475 0.495 5 1 C5 3.64 5 6.28 5 9 C5.66 9.33 6.32 9.66 7 10 C5.02 10 3.04 10 1 10 C1.33 7.03 1.66 4.06 2 1 C1.34 0.67 0.68 0.34 0 0 Z " fill="#EFE3C0" transform="translate(305,241)"/>
<path d="M0 0 C2.31 0.33 4.62 0.66 7 1 C6.25 2.9375 6.25 2.9375 5 5 C2.875 5.75 2.875 5.75 1 6 C0.67 4.02 0.34 2.04 0 0 Z " fill="#CFA742" transform="translate(250,246)"/>
<path d="M0 0 C0.66 0.33 1.32 0.66 2 1 C-2.33333333 5.33333333 -6.66666667 9.66666667 -11 14 C-11.66 13.67 -12.32 13.34 -13 13 C-8.71 8.71 -4.42 4.42 0 0 Z " fill="#F5D789" transform="translate(63,48)"/>
<path d="M0 0 C3.96 0 7.92 0 12 0 C12 0.33 12 0.66 12 1 C11.27554688 1.08636719 10.55109375 1.17273438 9.8046875 1.26171875 C3.32966663 2.20275512 -0.40926516 3.28519125 -5 8 C-5.33 7.34 -5.66 6.68 -6 6 C-5.34 6 -4.68 6 -4 6 C-3.67 4.68 -3.34 3.36 -3 2 C-2.01 2 -1.02 2 0 2 C0 1.34 0 0.68 0 0 Z " fill="#4B7CBB" transform="translate(139,171)"/>
<path d="M0 0 C1 2 1 2 -0.125 5.4375 C-1.68880731 8.92879075 -3.479691 10.38256073 -7 12 C-5.44298069 7.32894208 -2.91552627 3.91294315 0 0 Z " fill="#E1C888" transform="translate(99,156)"/>
<path d="M0 0 C6.45892714 -0.40368295 11.06108578 0.4084738 17 3 C17 4.98 17 6.96 17 9 C16.814375 8.401875 16.62875 7.80375 16.4375 7.1875 C14.34647365 4.00550338 11.52589785 3.03662761 8 2 C5.32243728 1.51402003 2.71661272 1.23829936 0 1 C0 0.67 0 0.34 0 0 Z " fill="#961F53" transform="translate(303,151)"/>
<path d="M0 0 C1.85486952 2.78230428 2.72462112 4.84363607 3.6875 8 C3.95949219 8.86625 4.23148437 9.7325 4.51171875 10.625 C5 13 5 13 4 16 C0.48766061 10.73149092 -0.25153688 6.28842188 0 0 Z " fill="#F1DBA0" transform="translate(344,122)"/>
<path d="M0 0 C0.66 0 1.32 0 2 0 C2.625 1.8125 2.625 1.8125 3 4 C2.01 5.485 2.01 5.485 1 7 C0.34 7 -0.32 7 -1 7 C-1.33 7.99 -1.66 8.98 -2 10 C-3 8 -3 8 -2.44140625 6.0546875 C-2.15136719 5.33539063 -1.86132812 4.61609375 -1.5625 3.875 C-1.27503906 3.15054688 -0.98757812 2.42609375 -0.69140625 1.6796875 C-0.46324219 1.12539062 -0.23507813 0.57109375 0 0 Z " fill="#3E7BD2" transform="translate(111,167)"/>
<path d="M0 0 C0.33 0.66 0.66 1.32 1 2 C0.67 2.66 0.34 3.32 0 4 C1.32 4.33 2.64 4.66 4 5 C0.04 5.66 -3.92 6.32 -8 7 C-5.42215154 4.35247996 -3.08351902 2.05567935 0 0 Z " fill="#860F50" transform="translate(251,160)"/>
<path d="M0 0 C0.66 0 1.32 0 2 0 C2.33 2.97 2.66 5.94 3 9 C1.68 8.34 0.36 7.68 -1 7 C-1.04254356 5.00045254 -1.04080783 2.99958364 -1 1 C-0.67 0.67 -0.34 0.34 0 0 Z " fill="#F0E5C9" transform="translate(314,242)"/>
<path d="M0 0 C2.64 0 5.28 0 8 0 C8.66 1.32 9.32 2.64 10 4 C3.47692308 3.38461538 3.47692308 3.38461538 1.0625 1.4375 C0.711875 0.963125 0.36125 0.48875 0 0 Z " fill="#1052CF" transform="translate(111,204)"/>
<path d="M0 0 C1.53690745 2.41040161 2.09752136 3.50082285 1.5390625 6.359375 C1.23742187 7.14828125 0.93578125 7.9371875 0.625 8.75 C0.32851562 9.54921875 0.03203125 10.3484375 -0.2734375 11.171875 C-0.51320313 11.77515625 -0.75296875 12.3784375 -1 13 C-1.66 13 -2.32 13 -3 13 C-2.45144652 8.428721 -1.58255197 4.32564205 0 0 Z " fill="#F6D888" transform="translate(11,125)"/>
<path d="M0 0 C1.32 0.66 2.64 1.32 4 2 C4 2.66 4 3.32 4 4 C2.04072937 5.7143618 0.04119788 7.38405168 -2 9 C-2.66 8.67 -3.32 8.34 -4 8 C-3.525625 7.236875 -3.05125 6.47375 -2.5625 5.6875 C-0.89893903 3.03589452 -0.89893903 3.03589452 0 0 Z " fill="#E0C685" transform="translate(293,310)"/>
<path d="M0 0 C0.33 0 0.66 0 1 0 C0.88557539 1.60495567 0.75805306 3.20898119 0.625 4.8125 C0.55539062 5.70582031 0.48578125 6.59914062 0.4140625 7.51953125 C0 10 0 10 -2 13 C-2.33 10.03 -2.66 7.06 -3 4 C-2.34 3.67 -1.68 3.34 -1 3 C-0.67 2.01 -0.34 1.02 0 0 Z " fill="#F3D68A" transform="translate(351,212)"/>
<path d="M0 0 C0.33 0.66 0.66 1.32 1 2 C1.66 2 2.32 2 3 2 C3.33 3.32 3.66 4.64 4 6 C2.35 6 0.7 6 -1 6 C-1.33 4.35 -1.66 2.7 -2 1 C-1.34 0.67 -0.68 0.34 0 0 Z " fill="#0C5BCF" transform="translate(110,191)"/>
<path d="M0 0 C0.99 1.32 1.98 2.64 3 4 C1.35 5.65 -0.3 7.3 -2 9 C-1.125 2.25 -1.125 2.25 0 0 Z " fill="#CDA035" transform="translate(247,237)"/>
<path d="M0 0 C0.33 1.32 0.66 2.64 1 4 C-1.97 6.475 -1.97 6.475 -5 9 C-5 4.61031544 -2.87194899 3.23094261 0 0 Z " fill="#F4CD6B" transform="translate(43,69)"/>
<path d="M0 0 C2.97 0 5.94 0 9 0 C6.73814546 2.26185454 5.03016439 3.03921617 2 4 C1.01 3.67 0.02 3.34 -1 3 C-0.67 2.01 -0.34 1.02 0 0 Z " fill="#E0C887" transform="translate(241,343)"/>
<path d="M0 0 C0.33 0 0.66 0 1 0 C1.33 2.97 1.66 5.94 2 9 C1.01 8.67 0.02 8.34 -1 8 C-1.625 5.125 -1.625 5.125 -2 2 C-1.34 1.34 -0.68 0.68 0 0 Z " fill="#F3ECD6" transform="translate(260,242)"/>
<path d="M0 0 C1.32 0 2.64 0 4 0 C3.67 1.65 3.34 3.3 3 5 C2.34 5 1.68 5 1 5 C0.67 5.99 0.34 6.98 0 8 C0 5.36 0 2.72 0 0 Z " fill="#CEA740" transform="translate(303,242)"/>
<path d="M0 0 C0.33 0 0.66 0 1 0 C1.33 2.97 1.66 5.94 2 9 C1.01 8.67 0.02 8.34 -1 8 C-1.625 5.125 -1.625 5.125 -2 2 C-1.34 1.34 -0.68 0.68 0 0 Z " fill="#F3EBD4" transform="translate(249,242)"/>
<path d="M0 0 C0.66 1.32 1.32 2.64 2 4 C0.35 5.65 -1.3 7.3 -3 9 C-2.44271087 5.65626525 -1.64826111 2.96687001 0 0 Z " fill="#F6D481" transform="translate(18,108)"/>
<path d="M0 0 C0.66 0.33 1.32 0.66 2 1 C-1.625 6.875 -1.625 6.875 -5 8 C-3.62845496 5.04590299 -2.01136276 2.55991624 0 0 Z " fill="#5C87C0" transform="translate(118,157)"/>
<path d="M0 0 C1.125 3.75 1.125 3.75 0 6 C-0.66 6 -1.32 6 -2 6 C-2 6.66 -2 7.32 -2 8 C-2.66 8 -3.32 8 -4 8 C-2.87548273 5.0280615 -1.77706209 2.66559313 0 0 Z " fill="#E4D098" transform="translate(91,168)"/>
<path d="M0 0 C2.50037734 2.17424117 3.43628586 3.73045798 4 7 C2.68 7.33 1.36 7.66 0 8 C-0.33 7.34 -0.66 6.68 -1 6 C-0.34 6 0.32 6 1 6 C0.67 4.02 0.34 2.04 0 0 Z " fill="#5682C1" transform="translate(179,163)"/>
<path d="M0 0 C2.97 0.33 5.94 0.66 9 1 C7.515 2.485 7.515 2.485 6 4 C5.01 3.67 4.02 3.34 3 3 C3 2.34 3 1.68 3 1 C2.01 0.67 1.02 0.34 0 0 Z " fill="#6190D2" transform="translate(152,148)"/>
<path d="M0 0 C2.31 0.33 4.62 0.66 7 1 C5.35 2.32 3.7 3.64 2 5 C0 1.125 0 1.125 0 0 Z " fill="#B5372D" transform="translate(267,146)"/>
<path d="" fill="#FFFFFF" transform="translate(0,0)"/>
</svg>
