<?xml version="1.0" standalone="no"?>
<!DOCTYPE svg PUBLIC "-//W3C//DTD SVG 20010904//EN"
 "http://www.w3.org/TR/2001/REC-SVG-20010904/DTD/svg10.dtd">
<svg version="1.0" xmlns="http://www.w3.org/2000/svg"
 width="500.000000pt" height="500.000000pt" viewBox="0 0 500.000000 500.000000"
 preserveAspectRatio="xMidYMid meet">

<g transform="translate(0.000000,500.000000) scale(0.100000,-0.100000)"
fill="#000000" stroke="none">
<path d="M0 2500 l0 -2500 2500 0 2500 0 0 2500 0 2500 -2500 0 -2500 0 0
-2500z m2563 1934 c18 -9 52 -31 77 -48 37 -27 440 -261 1410 -821 l125 -72 0
-163 0 -163 -87 -23 c-252 -67 -534 -217 -788 -420 -188 -150 -456 -431 -687
-719 -169 -210 -322 -354 -521 -489 -52 -36 -69 -52 -59 -58 45 -24 295 -120
349 -133 115 -27 158 -21 344 46 93 33 455 161 804 284 349 123 643 227 653
230 16 7 17 -4 15 -186 l-3 -192 -630 -363 c-773 -445 -875 -504 -947 -550
-39 -25 -73 -38 -105 -41 -45 -4 -56 0 -163 64 -63 38 -438 255 -833 483
l-717 413 2 160 3 160 115 33 c133 37 168 49 270 97 372 172 766 509 1147 982
192 239 316 361 502 498 141 105 133 91 65 115 -290 101 -360 122 -404 122
-37 0 -180 -47 -616 -201 -749 -264 -1022 -359 -1028 -359 -3 0 -6 87 -6 194
l0 194 43 24 c359 204 1355 780 1521 882 66 40 101 44 149 20z"/>
</g>
</svg>
