<?xml version="1.0" standalone="no"?>
<!DOCTYPE svg PUBLIC "-//W3C//DTD SVG 20010904//EN"
 "http://www.w3.org/TR/2001/REC-SVG-20010904/DTD/svg10.dtd">
<svg version="1.0" xmlns="http://www.w3.org/2000/svg"
 width="500.000000pt" height="500.000000pt" viewBox="0 0 500.000000 500.000000"
 preserveAspectRatio="xMidYMid meet">

<g transform="translate(0.000000,500.000000) scale(0.100000,-0.100000)"
fill="#000000" stroke="none">
<path d="M2423 4646 c-23 -13 -61 -37 -85 -53 -24 -16 -158 -96 -298 -176
-140 -81 -491 -284 -780 -450 l-525 -303 -3 -207 c-1 -117 1 -207 7 -207 4 0
321 111 702 246 1069 379 1002 357 1073 352 43 -3 123 -26 269 -78 200 -72
208 -75 186 -90 -185 -121 -448 -372 -646 -615 -535 -658 -1041 -1039 -1547
-1166 -48 -12 -90 -28 -93 -35 -2 -7 -1 -86 4 -175 l8 -163 55 -31 c1056 -609
1575 -910 1646 -954 91 -57 140 -52 259 29 32 21 1454 846 1622 941 l43 24 0
204 c0 189 -1 203 -17 196 -36 -14 -649 -230 -1038 -367 -220 -77 -467 -164
-549 -194 -131 -48 -157 -54 -225 -54 -45 0 -105 8 -146 19 -71 20 -333 125
-348 140 -4 4 11 20 35 36 199 131 420 336 586 545 283 356 511 590 785 804
264 206 555 353 845 426 l42 11 -2 175 -3 176 -570 329 c-842 486 -991 573
-1085 634 -98 64 -138 70 -207 31z"/>
</g>
</svg>
