<?xml version="1.0" standalone="no"?>
<!DOCTYPE svg PUBLIC "-//W3C//DTD SVG 20010904//EN"
 "http://www.w3.org/TR/2001/REC-SVG-20010904/DTD/svg10.dtd">
<svg version="1.0" xmlns="http://www.w3.org/2000/svg"
 width="500.000000pt" height="500.000000pt" viewBox="0 0 500.000000 500.000000"
 preserveAspectRatio="xMidYMid meet">

<g transform="translate(0.000000,500.000000) scale(0.100000,-0.100000)"
fill="#000000" stroke="none">
<path d="M2463 4595 c-18 -8 -52 -27 -75 -43 -37 -25 -767 -449 -1143 -664
l-130 -74 -3 -167 -2 -166 152 53 c84 30 362 128 618 219 256 90 490 173 520
183 90 29 137 23 322 -42 l167 -59 -97 -72 c-143 -107 -264 -224 -387 -374
-235 -288 -395 -453 -592 -612 -215 -173 -441 -295 -653 -351 l-85 -23 -3
-135 -3 -136 613 -352 c337 -194 651 -376 697 -404 108 -65 143 -67 224 -14
30 21 255 152 499 291 244 140 529 304 633 364 l190 110 3 163 c2 152 1 162
-15 155 -10 -3 -323 -114 -696 -246 -434 -153 -692 -239 -716 -239 -74 0 -388
110 -387 135 1 5 53 48 116 96 153 115 252 213 400 399 224 280 503 547 725
693 159 104 393 210 518 232 l37 7 0 139 0 138 -67 39 c-38 21 -243 140 -458
264 -214 124 -464 268 -555 321 -91 52 -196 116 -233 141 -74 50 -85 52 -134
31z"/>
<path d="M1847 1063 c-4 -3 -7 -23 -7 -44 l0 -38 89 -3 89 -3 -89 -120 c-73
-100 -88 -126 -89 -157 l0 -38 155 0 155 0 0 40 0 40 -95 0 c-52 0 -95 2 -95
5 0 2 40 60 90 127 75 103 90 129 90 161 l0 37 -143 0 c-79 0 -147 -3 -150 -7z"/>
<path d="M2285 956 c-134 -58 -115 -258 28 -297 147 -39 266 98 199 231 -33
67 -149 100 -227 66z m137 -83 c37 -34 26 -120 -17 -137 -83 -32 -158 52 -109
122 30 43 87 50 126 15z"/>
<path d="M2923 951 c-31 -19 -53 -49 -53 -70 0 -17 76 -13 90 4 15 18 71 20
88 3 7 -7 12 -20 12 -30 0 -16 -9 -18 -74 -18 -59 0 -78 -4 -99 -20 -51 -40
-43 -120 14 -151 32 -17 115 -14 144 5 30 20 35 20 35 1 0 -11 11 -15 36 -15
l36 0 -4 120 -3 120 -32 32 c-28 28 -40 32 -95 36 -50 2 -70 -1 -95 -17z m137
-180 c0 -11 -10 -27 -22 -35 -38 -27 -98 -18 -98 15 0 25 27 38 78 39 35 0 42
-3 42 -19z"/>
<path d="M2600 810 l0 -150 45 0 45 0 0 88 c0 108 13 132 71 132 39 0 39 0 39
40 0 40 0 40 -38 40 -21 0 -47 -7 -58 -15 -25 -19 -34 -19 -34 0 0 10 -11 15
-35 15 l-35 0 0 -150z"/>
<path d="M2010 386 c0 -77 4 -126 10 -126 6 0 10 28 10 64 0 56 3 67 22 80 54
38 88 6 88 -82 0 -35 4 -62 10 -62 6 0 10 30 10 69 0 63 -2 71 -26 90 -32 25
-52 26 -82 5 -22 -15 -22 -15 -22 30 0 25 -4 48 -10 51 -6 4 -10 -38 -10 -119z"/>
<path d="M2670 385 c0 -77 4 -125 10 -125 6 0 10 48 10 125 0 77 -4 125 -10
125 -6 0 -10 -48 -10 -125z"/>
<path d="M3205 490 c-8 -13 4 -32 16 -25 12 8 12 35 0 35 -6 0 -13 -4 -16 -10z"/>
<path d="M1355 480 c3 -5 22 -10 41 -10 l34 0 0 -105 c0 -63 4 -105 10 -105 6
0 10 42 10 105 l0 105 40 0 c22 0 40 5 40 10 0 6 -37 10 -91 10 -57 0 -88 -4
-84 -10z"/>
<path d="M1630 433 c-59 -22 -79 -96 -39 -147 28 -35 86 -36 126 -1 22 19 24
24 11 25 -10 0 -18 -4 -18 -10 0 -11 -48 -26 -70 -21 -21 4 -50 32 -50 48 0
10 19 13 75 13 68 0 75 2 75 19 0 44 -69 90 -110 74z m70 -33 c33 -33 24 -40
-45 -40 -37 0 -65 4 -65 10 0 19 40 50 65 50 14 0 34 -9 45 -20z"/>
<path d="M1834 430 c-56 -22 -72 -103 -29 -145 34 -35 93 -34 125 0 13 14 21
28 17 31 -4 4 -15 -3 -24 -15 -25 -31 -80 -32 -105 -1 -27 33 -23 74 8 99 33
26 54 26 87 1 32 -25 41 -25 28 -1 -6 10 -25 24 -42 30 -37 13 -37 13 -65 1z"/>
<path d="M2278 426 c-16 -8 -28 -11 -28 -5 0 5 -4 9 -10 9 -6 0 -10 -35 -10
-85 0 -50 4 -85 10 -85 6 0 10 27 10 60 0 47 4 64 20 80 51 51 100 4 100 -96
0 -24 5 -44 10 -44 13 0 13 74 0 121 -6 23 -19 40 -36 47 -31 15 -33 15 -66
-2z"/>
<path d="M2500 433 c-92 -34 -73 -173 24 -173 49 0 65 8 82 42 23 45 11 94
-29 118 -32 20 -50 23 -77 13z m75 -38 c39 -38 32 -86 -16 -110 -46 -24 -99 7
-99 59 0 36 7 48 35 64 31 18 54 14 80 -13z"/>
<path d="M2793 425 c-33 -14 -46 -41 -45 -89 3 -101 171 -101 174 0 1 49 -12
75 -48 90 -40 17 -41 17 -81 -1z m78 -16 c29 -15 42 -57 29 -90 -23 -55 -107
-55 -129 0 -27 65 38 124 100 90z"/>
<path d="M3009 425 c-40 -22 -53 -69 -32 -114 23 -46 67 -61 112 -38 30 15 31
15 31 -7 0 -53 -74 -74 -117 -34 -19 18 -23 19 -23 5 0 -47 95 -63 135 -22 23
22 25 32 25 120 0 57 -4 95 -10 95 -5 0 -10 -4 -10 -9 0 -6 -12 -3 -27 5 -35
17 -51 17 -84 -1z m74 -16 c29 -16 37 -28 37 -61 0 -32 -35 -68 -66 -68 -36 0
-67 33 -67 70 0 22 7 39 22 52 27 21 44 23 74 7z"/>
<path d="M3340 433 c-51 -20 -72 -80 -46 -131 17 -34 33 -42 82 -42 21 0 42 8
55 21 26 26 16 39 -11 14 -29 -26 -79 -24 -102 4 -10 13 -18 27 -18 32 0 5 36
9 81 9 l81 0 -7 28 c-3 15 -14 35 -23 44 -19 19 -68 31 -92 21z m78 -40 l27
-28 -37 -3 c-21 -2 -55 -2 -75 0 l-38 3 27 28 c15 15 37 27 48 27 12 0 33 -12
48 -27z"/>
<path d="M3534 430 c-53 -21 -35 -72 31 -89 52 -13 68 -37 39 -58 -22 -16 -63
-9 -81 14 -7 9 -16 14 -20 10 -3 -4 2 -16 12 -27 33 -37 125 -19 125 24 0 20
-33 45 -68 52 -41 8 -59 29 -42 49 18 22 56 18 80 -7 15 -17 20 -18 20 -6 0
32 -57 55 -96 38z"/>
<path d="M3210 345 c0 -50 4 -85 10 -85 6 0 10 35 10 85 0 50 -4 85 -10 85 -6
0 -10 -35 -10 -85z"/>
</g>
</svg>
