<?xml version="1.0" standalone="no"?>
<!DOCTYPE svg PUBLIC "-//W3C//DTD SVG 20010904//EN"
 "http://www.w3.org/TR/2001/REC-SVG-20010904/DTD/svg10.dtd">
<svg version="1.0" xmlns="http://www.w3.org/2000/svg"
 width="356.000000pt" height="362.000000pt" viewBox="0 0 356.000000 362.000000"
 preserveAspectRatio="xMidYMid meet">

<g transform="translate(0.000000,362.000000) scale(0.100000,-0.100000)"
fill="#000000" stroke="none">
<path d="M2467 2155 c-72 -15 -159 -51 -208 -86 -17 -12 -32 -19 -34 -17 -3 2
-8 22 -13 44 -6 30 -13 39 -28 37 -32 -4 -228 -35 -241 -38 -8 -3 -7 -16 4
-52 18 -58 29 -247 18 -329 -6 -47 -13 -64 -40 -91 -18 -18 -42 -33 -52 -33
-13 0 -23 -12 -32 -35 -13 -38 -101 -139 -135 -156 -11 -6 2 10 31 35 124 111
164 318 93 483 -42 99 -25 95 -367 94 l-298 0 -28 -33 c-65 -77 -89 -271 -41
-335 21 -28 21 -28 160 -31 l138 -3 -21 23 c-33 36 -43 63 -43 113 0 93 56
158 136 158 69 0 121 -46 134 -121 7 -45 -5 -106 -28 -138 -35 -49 -64 -54
-294 -55 -129 0 -202 -4 -185 -9 84 -25 185 -88 262 -162 76 -74 82 -78 125
-78 42 0 81 7 140 24 19 6 21 5 10 -3 -11 -8 66 -11 262 -11 l276 0 31 25 c46
40 54 79 46 225 -4 86 -3 141 5 170 15 54 88 128 167 167 53 26 67 28 173 28
110 0 118 -1 175 -32 137 -73 183 -160 135 -258 -25 -51 -70 -78 -131 -79
-111 -2 -184 124 -130 224 23 44 69 72 121 74 22 0 40 4 40 7 0 4 -24 17 -52
29 -79 34 -187 38 -278 11 -68 -21 -72 -24 -93 -69 -18 -39 -21 -66 -22 -157
0 -102 2 -115 29 -170 34 -68 113 -152 169 -179 21 -9 64 -22 95 -28 75 -14
151 7 209 57 23 19 43 35 46 35 2 0 7 -18 11 -40 8 -50 17 -52 161 -42 l110 7
-3 260 c-2 175 2 292 11 358 9 68 10 101 2 107 -14 12 -224 52 -236 44 -5 -3
-9 -9 -9 -14 0 -5 -4 -20 -10 -34 l-9 -25 -58 35 c-116 70 -274 97 -406 69z"/>
</g>
</svg>
